# xmcd CD database file
#
# Track frame offsets:
#	150
#	22487
#	40012
#	60682
#	81087
#	104452
#	126842
#	146947
#	166660
#	186945
#	215945
#	239352
#	257692
#	279580
#	304027
#
# Disc length: 4318 seconds
#
# Revision: 1
# Processed by: cddbd v1.5.2PL0 Copyright (c) Steve Scherf et al.
# Submitted via: CDex 1.81
#
DISCID=e310dc0f
DTITLE=Orquesta de la Luz - the Best Of Orquesta de la Luz
DYEAR=2000
DGENRE=Salsa
TTITLE0=Salsa Caliente Del Japon
TTITLE1=Cuero Sono
TTITLE2=Soy Sincera
TTITLE3=El Me Ama, Yo Le Amo
TTITLE4=Acercate Mas
TTITLE5=Mambo de la Luz [Album version]
TTITLE6=Salsa Con Sabor [Album Mix]
TTITLE7=I Am A Piano
TTITLE8=Salsa No Tiente Frontena
TTITLE9=Descarga de La Luz
TTITLE10=Move IT!
TTITLE11=Sabor
TTITLE12=(They LongTo be) Close To You
TTITLE13=La Aventura de Vivir
TTITLE14=Salsa Caliente Del Japon - Big Summer and Beats Mix -
EXTD=YEAR: 2000
EXTT0=
EXTT1=
EXTT2=
EXTT3=
EXTT4=
EXTT5=
EXTT6=
EXTT7=
EXTT8=
EXTT9=
EXTT10=
EXTT11=
EXTT12=
EXTT13=
EXTT14=
PLAYORDER=
